<?xml version="1.0" encoding="utf-8"?>
<!-- Svg Vector Icons : http://www.onlinewebfonts.com/icon -->
<!DOCTYPE svg PUBLIC "-//W3C//DTD SVG 1.1//EN" "http://www.w3.org/Graphics/SVG/1.1/DTD/svg11.dtd">
<svg version="1.1" xmlns="http://www.w3.org/2000/svg" xmlns:xlink="http://www.w3.org/1999/xlink" x="0px" y="0px" viewBox="0 0 256 256" enable-background="new 0 0 256 256" xml:space="preserve">
<metadata> Svg Vector Icons : http://www.onlinewebfonts.com/icon </metadata>
<g><g><g><path fill="#000000" d="M124.7,11.3c-0.7,0.7-1.5,2.1-1.7,3.1c-2,9.8-5,16.3-9.4,20.1c-1.7,1.5-5.3,3.4-9.4,5c-33.3,13-58.1,36.2-67.8,63.6c-6.2,17.5-6.2,38.9,0,56.3c10.3,28.8,34.5,51,64.1,58.9c3.5,1,6.9,1.9,7.3,2c0.6,0.1-0.4,2.7-2.8,7.7c-2,4.1-3.7,8.2-3.7,9.1c0,2,2.8,4.9,4.8,4.9c2.9,0,4.5-2.1,8.8-11.1c3.9-8.1,4.5-8.9,6-8.9h1.7v9.7c0,7.4,0.3,10.2,1,11.7c1.8,3.5,6.9,3.5,8.7,0c0.7-1.5,1-4.3,1-11.7V222h1.7c1.5,0,2.1,0.9,5.7,8.5c4.5,9.7,5.9,11.5,8.7,11.5c2.3,0,5.2-2.7,5.2-4.8c0-0.9-1.7-4.9-3.7-9.1c-2.3-4.9-3.3-7.6-2.8-7.7c0.5-0.1,3.7-1,7.2-1.9c29.6-8,54.1-30.5,64.2-59c6.2-17.5,6.2-39,0-56.3c-9.9-27.5-34.5-50.6-67.8-63.6c-4.1-1.6-7.7-3.5-9.4-5c-4.4-3.9-7.4-10.3-9.4-20.1C132.2,10.4,127.5,8.5,124.7,11.3z M131.2,51.1c12.3,23.9,17.4,74.2,11.7,117.5c-3,23.1-10,43.3-14.9,43.3c-3,0-7.7-9.6-10.9-22.3c-9.3-36.9-8.1-92.4,2.7-125.8C122.1,56.6,127,46,128,46C128.3,46,129.7,48.3,131.2,51.1z M110.3,59.7c-7.1,21.3-10.1,46.9-9.5,78.7c0.7,28.3,3.9,50.5,9.8,65.5c1,2.7,1.7,4.9,1.5,4.9c-1.6,0-10-5.8-14.2-9.8C85.1,186.6,76.5,168,73.6,146c-4.5-34.3,7.5-69,30.7-88.6c5.3-4.5,8.5-6.9,8.7-6.5C113.1,50.9,111.9,54.9,110.3,59.7z M152.2,57.7c16.4,14.2,27.4,36,30.5,60.6c1.1,9,0.5,25.3-1.3,34.6c-2.5,13-7.1,24.9-13.4,34.5c-4,6.1-14.7,16.5-19.7,19.2c-2.3,1.1-4.3,2.1-4.5,2.1c-0.3,0,0-0.8,0.5-1.9c3-5.9,7.3-24.1,9-37.8c2.1-17.7,2.7-44.7,1.3-61.5c-1.8-22.1-5.9-41.5-11.7-55.8c-0.5-1.3-0.5-1.3,1.7,0C145.8,52.4,149.2,55.1,152.2,57.7z M86.9,60.1c-0.3,0.5-1.9,2.7-3.6,4.9c-9.7,12.8-16.9,30.8-19.7,48.7c-1.3,8.6-1.3,26.7,0,35.1c2.8,18.5,9.3,35.2,18.8,47.8l4.2,5.5l-3.8-2.1c-6.4-3.6-12.3-8.3-18.6-14.8c-11.6-12.1-18.6-25.6-21.4-41.5c-1.3-8-0.9-22.5,1-29.7C49.3,93.7,62,76.4,81.5,63.1C87.2,59.1,87.7,58.9,86.9,60.1z M177.6,65.3c6.5,4.5,16.3,14.1,20.8,20.3c9.9,13.4,14.7,26.7,15.4,42.2c0.7,17.3-3.3,31.9-13,46.6c-6,9.1-18.3,20.5-27.8,25.7l-4,2.2l2.1-2.5c11.9-13.7,20.4-36.7,22.2-59.9c2.1-28.4-5.6-54.9-22.7-77.9l-2.3-3l2,1.3C171.5,60.9,174.7,63.2,177.6,65.3z"/></g></g></g>
</svg>
